{"title":"Grizzly.2014.BRRip.480p.x264.AAC-VYTO [P2PDL]","uid":11706648,"size":346074096,"categoryP":"video","categoryS":"movies","magnet":"?xt=urn:btih:c4f94b98e9f511fa228051dbc83b37f69b3f0da7&amp;dn=Grizzly.2014.BRRip.480p.x264.AAC-VYTO+%5BP2PDL%5D&amp;tr=udp%3A%2F%2Ftracker.openbittorrent.com%3A80&amp;tr=udp%3A%2F%2Fopen.demonii.com%3A1337&amp;tr=udp%3A%2F%2Ftracker.coppersurfer.tk%3A6969&amp;tr=udp%3A%2F%2Fexodus.desync.com%3A6969","seeders":4,"leechers":2,"uploader":"ValidusVyto","files":6,"time":1424157967,"description":"Grizzly.2014.BRRip.480p.x264.AAC-VYTO\n\n\nGenre: Action | Horror | Thriller\nIMDb: http://www.imdb.com/title/tt1694021/\n\nFormat                      : MPEG-4\nFile size                   : 326 MiB\nDuration                    : 1h 33mn\nOverall bit rate            : 487 Kbps\n\nVideo\nFormat                      : AVC\nBit rate                    : 453 Kbps\nWidth                       : 720 pixels\nHeight                      : 400 pixels\nDisplay aspect ratio        : 16:9\nFrame rate mode             : Constant\nFrame rate                  : 23.976 fps\nBit depth                   : 8 bits\nStream size                 : 303 MiB (93%)\nWriting library             : x264 core 144 r2525kMod 40bb568\n\nAudio\nFormat                      : AAC\nBit rate                    : 31.8 Kbps\nChannel(s)                  : 2 channels\nChannel positions           : Front: L R \nSampling rate               : 48.0 KHz\nStream size                 : 21.3 MiB (7%)\nLanguage                    : English\n\nSubtitle                    : English\nSource                      : 720p.BluRay.x264-RUSTED\n &lt;a href=&quot;\nhttp://someimage.com/mqlM2cB&quot; rel=&quot;nofollow&quot; target=&quot;_NEW&quot;&gt;\nhttp://someimage.com/mqlM2cB&lt;/a&gt; &lt;a href=&quot;\nhttp://someimage.com/OE1D1DE&quot; rel=&quot;nofollow&quot; target=&quot;_NEW&quot;&gt;\nhttp://someimage.com/OE1D1DE&lt;/a&gt; &lt;a href=&quot;\nhttp://someimage.com/uz1A0Su&quot; rel=&quot;nofollow&quot; target=&quot;_NEW&quot;&gt;\nhttp://someimage.com/uz1A0Su&lt;/a&gt; &lt;a href=&quot;\nhttp://someimage.com/rL4xtNI&quot; rel=&quot;nofollow&quot; target=&quot;_NEW&quot;&gt;\nhttp://someimage.com/rL4xtNI&lt;/a&gt; &lt;a href=&quot;\nhttp://someimage.com/BSXvJ5a&quot; rel=&quot;nofollow&quot; target=&quot;_NEW&quot;&gt;\nhttp://someimage.com/BSXvJ5a&lt;/a&gt; &lt;a href=&quot;\nhttp://someimage.com/B7jn6tf&quot; rel=&quot;nofollow&quot; target=&quot;_NEW&quot;&gt;\nhttp://someimage.com/B7jn6tf&lt;/a&gt; &lt;a href=&quot;\nhttp://someimage.com/H2v2CjA&quot; rel=&quot;nofollow&quot; target=&quot;_NEW&quot;&gt;\nhttp://someimage.com/H2v2CjA&lt;/a&gt; &lt;a href=&quot;\nhttp://someimage.com/7KoDrxR&quot; rel=&quot;nofollow&quot; target=&quot;_NEW&quot;&gt;\nhttp://someimage.com/7KoDrxR&lt;/a&gt;\n\n----------------------------------------------------------------------------------------------------\n\n\nEncoder Notes: Looking For Early Access To Anything You Can Provide DVDScr, R5, DVDR, BluRay, Direct\nAudio, Music Releases and Seedboxes. If You Got anything to offer please contact us.\n\nWe require dedicated servers, so as to do more and fast releases of movies.\nSupport us by sending us LC - LezHMTo2cYaiztCCcWxB4cNFVNVpWW3GSx","torrent":{"xt":"urn:btih:c4f94b98e9f511fa228051dbc83b37f69b3f0da7","amp;dn":"Grizzly.2014.BRRip.480p.x264.AAC-VYTO+%5BP2PDL%5D","amp;tr":["udp%3A%2F%2Ftracker.openbittorrent.com%3A80","udp%3A%2F%2Fopen.demonii.com%3A1337","udp%3A%2F%2Ftracker.coppersurfer.tk%3A6969","udp%3A%2F%2Fexodus.desync.com%3A6969"],"infoHash":"c4f94b98e9f511fa228051dbc83b37f69b3f0da7","infoHashBuffer":{"type":"Buffer","data":[196,249,75,152,233,245,17,250,34,128,81,219,200,59,55,246,155,63,13,167]},"announce":[],"urlList":[]}}